<?xml version="1.0" encoding="utf-8"?>
<!-- Generator: Adobe Illustrator 24.0.1, SVG Export Plug-In . SVG Version: 6.00 Build 0)  -->
<svg version="1.1" id="logo" xmlns="http://www.w3.org/2000/svg" xmlns:xlink="http://www.w3.org/1999/xlink" x="0px" y="0px"
	 viewBox="0 0 215 56" style="enable-background:new 0 0 215 56;" xml:space="preserve">
<style type="text/css">
	.st0{fill:url(#SVGID_1_);}
	.st1{fill:url(#SVGID_2_);}
	.st2{fill:url(#SVGID_3_);}
	.st3{fill:url(#SVGID_4_);}
	.st4{fill:url(#SVGID_5_);}
	.st5{fill:url(#SVGID_6_);}
	.st6{fill:url(#SVGID_7_);}
	.st7{fill:url(#SVGID_8_);}
	.st8{fill:url(#SVGID_9_);}
	.st9{fill:url(#SVGID_10_);}
	.st10{fill:url(#SVGID_11_);}
	.st11{fill:url(#SVGID_12_);}
	.st12{fill:url(#SVGID_13_);}
	.st13{fill:url(#SVGID_14_);}
	.st14{fill:url(#SVGID_15_);}
</style>
<g id="img">
	
		<linearGradient id="SVGID_1_" gradientUnits="userSpaceOnUse" x1="49.1414" y1="810.0795" x2="19.7643" y2="844.8322" gradientTransform="matrix(1 0 0 1 0 -801.98)">
		<stop  offset="0" style="stop-color:#FFED00"/>
		<stop  offset="1" style="stop-color:#A1E300"/>
	</linearGradient>
	<path class="st0" d="M29.8,43.5c-0.3-0.9-0.6-1.7-1.1-2.6c-0.9-1.7-2.2-3.3-3.6-4.5c-0.8-0.6-1.6-1.1-2.5-1.5
		c-0.9-0.4-1.9-0.6-2.9-0.7c-1-0.2-2-0.2-3-0.1c-0.5,0.1-1,0.1-1.5,0.2c-0.4,0.2-0.5,0.3-0.8,0.3l-0.4,0.1l-0.2,0.1h-0.1h-0.1
		L12.8,35v0.7c0,0.1,0,0.1,0,0.2v0.2v0.4c0,0.2,0,0.5,0.1,0.6c0.1,0.9,0.4,1.7,0.6,2.6c0.2,0.5,0.4,0.8,0.5,1.3
		c0.4,0.8,0.9,1.5,1.5,2.3s1.4,1.4,2.2,1.8c0.7,0.5,1.5,0.8,2.5,1.1c0.5,0.1,0.8,0.3,1.3,0.3c0.5,0.1,0.8,0.1,1.3,0.2
		c1.7,0.1,3.4-0.1,5-0.5c-1.6,0-3.3-0.2-4.9-0.5c-1.5-0.3-3-1-4.2-1.9c-1.2-0.9-2.1-2.2-2.7-3.5c-0.2-0.4-0.4-0.7-0.5-1.1
		s-0.2-0.7-0.3-1.1c-0.1-0.4-0.2-0.7-0.2-1.1c0-0.1,0-0.3,0-0.4l0.5-0.1c1.3-0.3,2.5-0.4,3.7-0.2c1.7,0.2,3.4,0.7,4.7,1.6
		c1.5,1,2.7,2.2,3.7,3.6c0.5,0.7,1,1.5,1.5,2.3s0.9,1.6,1.3,2.5C30.4,45.4,30.1,44.5,29.8,43.5z"/>
	
		<linearGradient id="SVGID_2_" gradientUnits="userSpaceOnUse" x1="59.4265" y1="818.7701" x2="30.0494" y2="853.5227" gradientTransform="matrix(1 0 0 1 0 -801.98)">
		<stop  offset="0" style="stop-color:#FFED00"/>
		<stop  offset="1" style="stop-color:#A1E300"/>
	</linearGradient>
	<path class="st1" d="M50.4,27.9c-0.1-0.5-0.2-1.1-0.4-1.6c-0.1-0.3-0.1-0.5-0.2-0.8c0-0.1-0.1-0.3-0.1-0.5l-0.1-0.2l-0.1-0.3
		l-0.4-0.9l-0.9,0.3L48,24l-0.2,0.1l-0.5,0.2l-0.8,0.4c-0.5,0.3-1.1,0.5-1.5,0.7c-1,0.5-2,1.3-2.9,2c-0.1,0.1-0.3,0.2-0.4,0.3
		c0.2,0.7,0.5,1.4,0.5,2.1c0.4-0.3,0.6-0.5,1-0.8c0.8-0.6,1.7-1.3,2.6-1.7c0.5-0.3,0.9-0.5,1.5-0.7l0.5-0.2c0,0.2,0.1,0.3,0.1,0.5
		c0.1,0.5,0.2,1,0.3,1.5c0.2,1,0.3,2,0.4,3.1c0,1,0,2-0.2,3.1c-0.1,1-0.4,2-0.7,3c-0.6,1.9-1.7,3.7-3.2,5.2
		c-0.7,0.7-1.5,1.5-2.4,2.1c-0.5,0.3-0.9,0.6-1.4,0.9s-0.9,0.5-1.4,0.8c0.5-0.2,1-0.4,1.5-0.5c0.5-0.2,1-0.5,1.5-0.7
		c1-0.5,1.9-1.1,2.7-1.8c1.7-1.5,3.1-3.3,4-5.4c0.9-2.1,1.3-4.4,1.3-6.6C50.7,30.1,50.6,29,50.4,27.9z"/>
	
		<linearGradient id="SVGID_3_" gradientUnits="userSpaceOnUse" x1="57.5558" y1="817.1826" x2="28.1711" y2="851.9427" gradientTransform="matrix(1 0 0 1 0 -801.98)">
		<stop  offset="0" style="stop-color:#FFED00"/>
		<stop  offset="1" style="stop-color:#A1E300"/>
	</linearGradient>
	<path class="st2" d="M39.2,30.3c-0.5,0.7-1.1,1.6-1.5,2.5c-1.1,2.1-1.6,4.5-1.7,6.7c-0.1,1.2,0,2.3,0.2,3.5
		c0.1,0.5,0.2,1.1,0.3,1.6c0.1,0.5,0.3,1.1,0.5,1.6c0-0.5-0.1-1.1-0.1-1.6s0-1.1,0-1.6c0-1.1,0.1-2.2,0.3-3.3c0.4-2.1,1.1-4.2,2.2-6
		c0.2-0.3,0.4-0.6,0.5-0.9C39.6,32,39.5,31.2,39.2,30.3z"/>
	
		<linearGradient id="SVGID_4_" gradientUnits="userSpaceOnUse" x1="66.297" y1="824.5819" x2="36.9198" y2="859.3345" gradientTransform="matrix(1 0 0 1 0 -801.98)">
		<stop  offset="0" style="stop-color:#FFED00"/>
		<stop  offset="1" style="stop-color:#A1E300"/>
	</linearGradient>
	<path class="st3" d="M57.1,35.1l-0.6-0.3h-0.1h-0.1l-0.2-0.1l-0.4-0.1c-0.3-0.1-0.5-0.1-0.7-0.2c-0.5-0.1-1-0.2-1.5-0.2
		c-0.8-0.1-1.6-0.1-2.5,0c-0.1,0.7-0.3,1.4-0.5,2.1h0.1c1.3-0.1,2.5-0.1,3.7,0.2l0.5,0.1c0,0.1,0,0.2,0,0.4
		c-0.1,0.4-0.1,0.7-0.2,1.1c-0.1,0.4-0.2,0.7-0.3,1.1s-0.3,0.7-0.4,1.1c-0.5,1.4-1.5,2.6-2.7,3.5c-1.3,0.9-2.7,1.6-4.2,1.9
		c-1.6,0.4-3.3,0.5-4.9,0.5c1.6,0.5,3.4,0.6,5,0.5c0.5,0,0.8-0.1,1.3-0.2c0.5-0.1,0.8-0.2,1.3-0.3c0.9-0.3,1.7-0.6,2.5-1.1
		c0.7-0.5,1.5-1.1,2-1.8c0.6-0.7,1.1-1.5,1.5-2.3c0.2-0.4,0.4-0.8,0.5-1.3c0.3-0.8,0.5-1.7,0.6-2.6c0-0.2,0.1-0.5,0.1-0.6
		s0-0.3,0-0.4L57.1,35.1L57.1,35.1z"/>
	
		<linearGradient id="SVGID_5_" gradientUnits="userSpaceOnUse" x1="53.2822" y1="813.5729" x2="23.905" y2="848.3331" gradientTransform="matrix(1 0 0 1 0 -801.98)">
		<stop  offset="0" style="stop-color:#FFED00"/>
		<stop  offset="1" style="stop-color:#A1E300"/>
	</linearGradient>
	<path class="st4" d="M42,32.7c-0.2-2.5-0.8-5-1.9-7.4c-0.5-1.2-1.2-2.3-1.9-3.3c-0.4-0.5-0.7-1-1.2-1.5c-0.2-0.3-0.4-0.5-0.6-0.7
		L36,19.4l-0.2-0.2c-0.1-0.1-0.1-0.1-0.2-0.2l-0.7-0.6l-0.6,0.6c-0.1,0.1-0.1,0.1-0.2,0.2l-0.2,0.2l-0.4,0.4
		c-0.2,0.3-0.5,0.5-0.6,0.7c-0.4,0.5-0.7,1-1.2,1.5c-0.7,1-1.4,2.1-1.9,3.3c-0.3,0.6-0.6,1.4-0.8,2.1c0.5,0.5,1,1,1.5,1.5
		c0.4-0.9,0.7-1.8,1.2-2.7c0.5-1.1,1.1-2.1,1.8-3c0.4-0.5,0.7-0.9,1.1-1.4c0.1-0.2,0.3-0.4,0.5-0.5c0.2,0.2,0.3,0.4,0.5,0.5
		c0.4,0.5,0.7,0.9,1.1,1.4c0.6,1,1.3,2,1.8,3c0.5,1,1,2.1,1.3,3.2c0.4,1.1,0.6,2.3,0.7,3.4c0.3,2.4,0.1,4.7-0.6,6.9
		c-0.4,1.2-0.7,2.3-1.3,3.4c-0.3,0.5-0.5,1.1-0.8,1.6c-0.3,0.5-0.6,1.1-0.9,1.5c0.5-0.5,0.8-0.9,1.2-1.4c0.4-0.5,0.7-1,1.1-1.5
		c0.6-1,1.3-2.2,1.7-3.3C41.8,37.7,42.1,35.3,42,32.7z"/>
	
		<linearGradient id="SVGID_6_" gradientUnits="userSpaceOnUse" x1="53.4537" y1="813.7185" x2="24.0766" y2="848.4787" gradientTransform="matrix(1 0 0 1 0 -801.98)">
		<stop  offset="0" style="stop-color:#FFED00"/>
		<stop  offset="1" style="stop-color:#A1E300"/>
	</linearGradient>
	<path class="st5" d="M31.5,43.1c-0.5-1.1-0.9-2.2-1.3-3.3c-0.6-2.3-0.9-4.5-0.6-6.9c-0.5-0.6-0.9-1.2-1.5-1.7
		c-0.1,0.5-0.1,1-0.2,1.5c-0.1,2.5,0.3,5.1,1.3,7.4c0.5,1.2,1,2.3,1.7,3.3c0.4,0.5,0.7,1,1.1,1.5c0.4,0.5,0.7,1,1.2,1.4
		c-0.3-0.5-0.6-1-0.9-1.5C32,44.2,31.7,43.6,31.5,43.1z"/>
	
		<linearGradient id="SVGID_7_" gradientUnits="userSpaceOnUse" x1="42.954" y1="804.8492" x2="13.5769" y2="839.6019" gradientTransform="matrix(1 0 0 1 0 -801.98)">
		<stop  offset="0" style="stop-color:#FFED00"/>
		<stop  offset="1" style="stop-color:#A1E300"/>
	</linearGradient>
	<path class="st6" d="M24.4,25l-0.9-0.5l-0.8-0.4L22.2,24L22,23.9l-0.3-0.1l-0.9-0.3l-0.3,0.9l-0.1,0.2l-0.1,0.2
		c0,0.1-0.1,0.3-0.1,0.5c-0.1,0.3-0.2,0.5-0.2,0.8c-0.1,0.5-0.3,1.1-0.4,1.6c-0.2,1.1-0.3,2.3-0.3,3.4c0,0.8,0.1,1.5,0.2,2.3h0.1
		c0.6,0.1,1.3,0.2,1.8,0.4c-0.1-0.9-0.2-1.8-0.2-2.7c0-1,0.2-2,0.4-3.1c0.1-0.5,0.2-1,0.3-1.5c0-0.2,0.1-0.3,0.1-0.5l0.5,0.2
		c0.4,0.2,0.7,0.4,1.2,0.5C23.9,26.3,24.1,25.7,24.4,25z"/>
	
		<linearGradient id="SVGID_8_" gradientUnits="userSpaceOnUse" x1="52.0652" y1="812.5482" x2="22.688" y2="847.3084" gradientTransform="matrix(1 0 0 1 0 -801.98)">
		<stop  offset="0" style="stop-color:#FFED00"/>
		<stop  offset="1" style="stop-color:#A1E300"/>
	</linearGradient>
	<path class="st7" d="M34.2,39.5c-0.1-2.4-0.6-4.6-1.7-6.7c-1.1-2.1-2.6-4-4.5-5.5c-0.3-0.3-0.5-0.5-0.9-0.7
		c-0.2,0.5-0.4,1.1-0.5,1.7c0,0.1-0.1,0.2-0.1,0.4l0.3,0.2c1.7,1.3,3.1,2.9,4.2,4.7c1.1,1.8,1.8,3.9,2.2,6c0.2,1.1,0.3,2.3,0.3,3.4
		c0,0.5,0,1.1,0,1.6s-0.1,1.1-0.1,1.6c0.2-0.5,0.3-1.1,0.5-1.6s0.2-1.1,0.3-1.6C34.2,41.8,34.2,40.7,34.2,39.5z"/>
	
		<linearGradient id="SVGID_9_" gradientUnits="userSpaceOnUse" x1="61.4891" y1="820.5118" x2="32.1045" y2="855.2646" gradientTransform="matrix(1 0 0 1 0 -801.98)">
		<stop  offset="0" style="stop-color:#FFED00"/>
		<stop  offset="1" style="stop-color:#A1E300"/>
	</linearGradient>
	<path class="st8" d="M44.1,37.4c-1.1,1.1-2,2.3-2.7,3.6c-0.5,0.8-0.8,1.7-1.1,2.5c-0.3,0.9-0.5,1.8-0.7,2.7
		c0.4-0.8,0.8-1.6,1.3-2.5s0.9-1.5,1.5-2.3c0.5-0.5,0.9-1.2,1.4-1.7C43.8,39,44,38.2,44.1,37.4z"/>
	
		<linearGradient id="SVGID_10_" gradientUnits="userSpaceOnUse" x1="61.8193" y1="820.7895" x2="32.4345" y2="855.5421" gradientTransform="matrix(1 0 0 1 0 -801.98)">
		<stop  offset="0" style="stop-color:#FFED00"/>
		<stop  offset="1" style="stop-color:#A1E300"/>
	</linearGradient>
	<path class="st9" d="M47.7,35.1c-0.3,0.1-0.5,0.3-0.8,0.4c-0.1,0.7-0.2,1.5-0.4,2.1v0.1c0.2-0.1,0.5-0.3,0.6-0.4
		c0-0.1,0.1-0.1,0.1-0.2C47.4,36.4,47.6,35.7,47.7,35.1L47.7,35.1z"/>
	
		<linearGradient id="SVGID_11_" gradientUnits="userSpaceOnUse" x1="52.8347" y1="813.2023" x2="23.4577" y2="847.955" gradientTransform="matrix(1 0 0 1 0 -801.98)">
		<stop  offset="0" style="stop-color:#FFED00"/>
		<stop  offset="1" style="stop-color:#A1E300"/>
	</linearGradient>
	<path class="st10" d="M26.2,41.7c-0.2-0.5-0.3-1-0.4-1.5c-0.4-0.4-0.7-0.7-1.1-1c0.3,0.9,0.5,1.8,0.9,2.7c0.3,0.7,0.6,1.5,1,2.2
		c0.4,0.7,0.7,1.4,1.2,2c-0.3-0.7-0.6-1.5-0.8-2.2C26.6,43.3,26.4,42.5,26.2,41.7z"/>
	
		<linearGradient id="SVGID_12_" gradientUnits="userSpaceOnUse" x1="48.3568" y1="809.4121" x2="18.9796" y2="844.1723" gradientTransform="matrix(1 0 0 1 0 -801.98)">
		<stop  offset="0" style="stop-color:#FFED00"/>
		<stop  offset="1" style="stop-color:#A1E300"/>
	</linearGradient>
	<path class="st11" d="M42,18.9c-0.9-1.4-1.8-2.6-2.9-3.8c-0.5-0.6-1.1-1.2-1.6-1.7c-0.3-0.3-0.5-0.5-0.9-0.8l-0.5-0.4L35.8,12
		c-0.1-0.1-0.2-0.1-0.3-0.2l-0.6-0.5l-0.5,0.5c-0.1,0.1-0.2,0.1-0.3,0.2l-0.3,0.2l-0.5,0.4c-0.3,0.3-0.6,0.5-0.9,0.8
		c-0.5,0.5-1.1,1.1-1.6,1.7c-1.1,1.2-2,2.5-2.9,3.8c-1.8,2.7-3.1,5.7-3.7,8.9c-0.4,1.5-0.5,3.2-0.5,4.8c0,0.8,0,1.5,0.1,2.4
		c0.5,0.2,0.8,0.5,1.3,0.7c-0.2-2.5,0.1-5.1,0.7-7.6c0.2-0.7,0.5-1.5,0.7-2.2c0.3-0.7,0.5-1.4,0.9-2.1c0.6-1.4,1.4-2.6,2.3-3.9
		c0.8-1.3,1.7-2.5,2.8-3.5c0.5-0.5,1-1.1,1.5-1.6l0.8-0.7l0.2-0.2l0.2,0.2c0.3,0.3,0.5,0.5,0.8,0.7c0.5,0.5,1.1,1.1,1.5,1.6
		c1,1.1,1.9,2.3,2.8,3.5c0.8,1.3,1.6,2.5,2.3,3.9c0.3,0.5,0.5,1.1,0.7,1.6c0.5-0.3,0.9-0.5,1.4-0.8l0.2-0.1
		C44.2,22.6,43.2,20.7,42,18.9z"/>
	
		<linearGradient id="SVGID_13_" gradientUnits="userSpaceOnUse" x1="49.9734" y1="810.7736" x2="20.5962" y2="845.5338" gradientTransform="matrix(1 0 0 1 0 -801.98)">
		<stop  offset="0" style="stop-color:#FFED00"/>
		<stop  offset="1" style="stop-color:#A1E300"/>
	</linearGradient>
	<path class="st12" d="M25,42.2c0-0.1-0.1-0.2-0.1-0.4c-1-1.2-1.9-2.6-2.5-4.1c-0.6-0.3-1.3-0.5-2-0.6c0.1,0.3,0.2,0.5,0.3,0.7
		c0.5,1,1,2,1.7,2.9c0.6,0.9,1.5,1.7,2.3,2.5c0.4,0.3,0.7,0.5,1.1,0.8C25.5,43.4,25.2,42.8,25,42.2z"/>
	
		<linearGradient id="SVGID_14_" gradientUnits="userSpaceOnUse" x1="55.8973" y1="815.7913" x2="26.5201" y2="850.5439" gradientTransform="matrix(1 0 0 1 0 -801.98)">
		<stop  offset="0" style="stop-color:#FFED00"/>
		<stop  offset="1" style="stop-color:#A1E300"/>
	</linearGradient>
	<path class="st13" d="M29.1,45.5c-0.5-0.3-0.8-0.5-1.3-0.8l0.3,0.7c0.3,0.1,0.5,0.3,0.8,0.4c0.5,0.2,1,0.4,1.5,0.5
		C30,46,29.6,45.7,29.1,45.5z"/>
	
		<linearGradient id="SVGID_15_" gradientUnits="userSpaceOnUse" x1="59.7512" y1="819.0426" x2="30.3741" y2="853.7952" gradientTransform="matrix(1 0 0 1 0 -801.98)">
		<stop  offset="0" style="stop-color:#FFED00"/>
		<stop  offset="1" style="stop-color:#A1E300"/>
	</linearGradient>
	<path class="st14" d="M43.9,41.7c-0.1,0.3-0.2,0.5-0.3,0.7l0.5-0.5c0.2-0.2,0.3-0.4,0.5-0.5c0.5-1.4,0.9-2.7,1.2-4.1
		c0.6-3.1,0.6-6.3,0-9.4c-0.5,0.3-1,0.5-1.5,0.9c0.6,2.7,0.7,5.6,0.5,8.3C44.7,38.8,44.4,40.3,43.9,41.7z"/>
</g>
<g id="title" fill="#FFFFFF">
	<path class="st15" d="M79.5,43.7h-5.8c-3.2,0-4.7-2.3-4.7-6.9V24.4c0-0.5,0.2-0.8,0.5-0.8h0.4c0.4,0,0.5,0.3,0.5,0.8v12.4
		c0,3.5,1,4.8,3.1,4.8h5.8c0.4,0,0.5,0.4,0.5,0.8v0.5C80.1,43.4,79.9,43.7,79.5,43.7z"/>
	<path class="st15" d="M92.2,43.7h-6.1c-3.6,0-4.5-2.3-4.5-6.9v-5.9c0-4.9,1.2-7.3,4.6-7.3h6c0.4,0,0.5,0.4,0.5,0.9V25
		c0,0.5-0.2,0.8-0.5,0.8h-6c-2.3,0-3.2,1.3-3.2,5v1.5h8.5c0.4,0,0.5,0.4,0.5,0.8v0.3c0,0.5-0.2,0.9-0.5,0.9H83v2.5
		c0,3.7,0.6,4.8,3.3,4.8h5.9c0.4,0,0.5,0.4,0.5,0.8v0.5C92.8,43.4,92.5,43.7,92.2,43.7z"/>
	<path class="st15" d="M105.1,43.8h-0.4c-0.4,0-0.5-0.3-0.5-0.8v-4.8h-8.1V43c0,0.5-0.3,0.8-0.5,0.8h-0.4c-0.4,0-0.5-0.3-0.5-0.8V30
		c0-3.9,1.2-6.5,4.3-6.5h2.5c3.2,0,4.4,2.5,4.4,6.5v13C105.6,43.5,105.5,43.8,105.1,43.8z M104.2,30c0-3-1.1-4.3-2.8-4.3h-2.5
		c-1.6,0-2.7,1.2-2.7,4.3v6.1h8.1V30z"/>
	<path class="st15" d="M118.5,25.8h-6c-2.3,0-3.2,1.3-3.2,5v1.9h8.5c0.4,0,0.5,0.4,0.5,0.8V34c0,0.5-0.2,0.9-0.5,0.9h-8.5v8
		c0,0.5-0.2,0.8-0.5,0.8h-0.4c-0.4,0-0.5-0.3-0.5-0.8V30.8c0-4.9,1.2-7.3,4.6-7.3h6c0.4,0,0.5,0.4,0.5,0.9v0.5
		C119.1,25.4,118.9,25.8,118.5,25.8z"/>
	<path class="st15" d="M131.3,43.8h-0.4c-0.4,0-0.5-0.3-0.5-0.8v-4.8h-8.1V43c0,0.5-0.3,0.8-0.5,0.8h-0.4c-0.4,0-0.5-0.3-0.5-0.8V30
		c0-3.9,1.2-6.5,4.3-6.5h2.5c3.2,0,4.4,2.5,4.4,6.5v13C131.8,43.5,131.6,43.8,131.3,43.8z M130.3,30c0-3-1.1-4.3-2.8-4.3h-2.5
		c-1.6,0-2.7,1.2-2.7,4.3v6.1h8.1L130.3,30L130.3,30z"/>
	<path class="st15" d="M141.7,43.8h-2.5c-3.9,0-5.4-2.9-5.4-8.2v-3.8c0-5.4,1.6-8.3,5.4-8.3h2c3.1,0,4.6,2.3,4.9,5.3v0.1
		c0,0.4-0.1,0.6-0.5,0.6h-0.4c-0.4,0-0.6-0.3-0.6-0.5c-0.3-1.4-1-3.3-3.5-3.3h-2c-2.8,0-3.8,2.3-3.8,6.1v3.9c0,4,1.1,6,3.8,6h2.5
		c2.4,0,3-2,3-4.2V36c0-0.4-0.2-0.6-0.5-0.6h-3.7c-0.4,0-0.5-0.3-0.5-0.8v-0.5c0-0.5,0.2-0.9,0.5-0.9h4.5c0.7,0,1.3,0.8,1.3,1.8v2.3
		C146.2,41,145,43.8,141.7,43.8z"/>
	<path class="st15" d="M158.7,43.7h-6.1c-3.6,0-4.5-2.3-4.5-6.9v-5.9c0-4.9,1.2-7.3,4.6-7.3h6c0.4,0,0.5,0.4,0.5,0.9V25
		c0,0.5-0.2,0.8-0.5,0.8h-6c-2.3,0-3.2,1.3-3.2,5v1.5h8.5c0.4,0,0.5,0.4,0.5,0.8v0.3c0,0.5-0.2,0.9-0.5,0.9h-8.5v2.5
		c0,3.7,0.6,4.8,3.3,4.8h5.9c0.4,0,0.5,0.4,0.5,0.8v0.5C159.2,43.4,159,43.7,158.7,43.7z"/>
	<path class="st15" d="M174.3,43.8h-2.5c-3.9,0-5.4-2.9-5.4-8.2v-3.8c0-5.4,1.6-8.3,5.4-8.3h2c3.1,0,4.6,2.3,4.9,5.3v0.1
		c0,0.4-0.1,0.6-0.5,0.6h-0.4c-0.4,0-0.6-0.3-0.6-0.5c-0.3-1.4-1-3.3-3.5-3.3h-2c-2.8,0-3.8,2.3-3.8,6.1v3.9c0,4,1.1,6,3.8,6h2.5
		c2.4,0,3-2,3-4.2V36c0-0.4-0.2-0.6-0.5-0.6h-3.7c-0.4,0-0.5-0.3-0.5-0.8v-0.5c0-0.5,0.2-0.9,0.5-0.9h4.5c0.7,0,1.3,0.8,1.3,1.8v2.3
		C178.9,41,177.7,43.8,174.3,43.8z"/>
	<path class="st15" d="M183.1,43.7H182c-0.4,0-0.6-0.5-0.6-1.1v-0.5c0-0.6,0.3-1.1,0.6-1.1h1.1c0.4,0,0.6,0.5,0.6,1.1v0.6
		C183.7,43.3,183.4,43.7,183.1,43.7z"/>
	<path class="st15" d="M197,43.7h-0.4c-0.4,0-0.5-0.3-0.5-0.8v-0.5c0-5.4-2.4-8.5-6.1-8.5h-1.9v9c0,0.5-0.3,0.8-0.5,0.8h-0.4
		c-0.4,0-0.5-0.3-0.5-0.8V24.3c0-0.5,0.2-0.8,0.5-0.8h0.4c0.4,0,0.5,0.3,0.5,0.8v7.5h1c3.9,0,6.8-3.2,6.8-7.5v-0.1
		c0-0.5,0.3-0.7,0.5-0.7h0.3c0.4,0,0.5,0.3,0.5,0.7v0.2c0,3.9-2.2,7-4.5,8.2c3.1,1.2,4.8,5.1,4.8,9.8V43
		C197.5,43.4,197.3,43.7,197,43.7z"/>
	<path class="st15" d="M201.5,43.7h-1.1c-0.4,0-0.6-0.5-0.6-1.1v-0.5c0-0.6,0.3-1.1,0.6-1.1h1.1c0.4,0,0.6,0.5,0.6,1.1v0.6
		C202.2,43.3,202,43.7,201.5,43.7z"/>
</g>
</svg>
